<?xml version="1.0" standalone="no"?>
<!DOCTYPE svg PUBLIC "-//W3C//DTD SVG 20010904//EN"
 "http://www.w3.org/TR/2001/REC-SVG-20010904/DTD/svg10.dtd">
<svg version="1.0" xmlns="http://www.w3.org/2000/svg"
 width="1024.000000pt" height="746.000000pt" viewBox="0 0 1024.000000 746.000000"
 preserveAspectRatio="xMidYMid meet">

<g transform="translate(0.000000,746.000000) scale(0.100000,-0.100000)"
fill="#000000" stroke="none">
<path d="M5785 5150 c-416 -48 -711 -269 -804 -602 -20 -72 -21 -95 -21 -747
0 -643 1 -676 20 -754 23 -93 24 -95 76 -200 63 -128 198 -259 339 -330 59
-29 207 -77 320 -103 114 -27 606 -27 770 -1 131 21 245 43 340 66 l70 16 0
195 c0 167 -2 195 -15 193 -8 0 -78 -17 -156 -37 -467 -119 -909 -124 -1129
-14 -127 63 -212 183 -234 333 -9 58 -12 243 -9 685 3 669 1 645 69 734 41 53
121 113 186 139 110 44 214 57 450 57 290 0 541 -35 763 -106 85 -27 80 -38
80 175 0 172 -2 190 -17 195 -66 19 -297 67 -448 92 -114 18 -534 28 -650 14z"/>
<path d="M2480 3775 l0 -1375 195 0 195 0 0 610 0 610 670 0 670 0 0 -610 0
-610 195 0 195 0 0 1375 0 1375 -195 0 -195 0 0 -580 0 -580 -670 0 -670 0 0
580 0 580 -195 0 -195 0 0 -1375z"/>
<path d="M7290 3775 l0 -1375 200 0 200 0 -2 1373 -3 1372 -197 3 -198 2 0
-1375z"/>
</g>
</svg>
